<?xml version="1.0" encoding="UTF-8" standalone="no"?>
<!-- Created with Inkscape (http://www.inkscape.org/) -->

<svg
   xmlns:dc="http://purl.org/dc/elements/1.1/"
   xmlns:cc="http://creativecommons.org/ns#"
   xmlns:rdf="http://www.w3.org/1999/02/22-rdf-syntax-ns#"
   xmlns:svg="http://www.w3.org/2000/svg"
   xmlns="http://www.w3.org/2000/svg"
   xmlns:sodipodi="http://sodipodi.sourceforge.net/DTD/sodipodi-0.dtd"
   xmlns:inkscape="http://www.inkscape.org/namespaces/inkscape"
   width="210mm"
   height="297mm"
   viewBox="0 0 744.09448819 1052.3622047"
   id="svg5557"
   version="1.1"
   inkscape:version="0.91 r13725"
   sodipodi:docname="glyphs.svg">
  <defs
     id="defs5559" />
  <sodipodi:namedview
     id="base"
     pagecolor="#ffffff"
     bordercolor="#666666"
     borderopacity="1.0"
     inkscape:pageopacity="0.0"
     inkscape:pageshadow="2"
     inkscape:zoom="0.49497475"
     inkscape:cx="343.66848"
     inkscape:cy="530.38914"
     inkscape:document-units="px"
     inkscape:current-layer="layer1"
     showgrid="false"
     inkscape:window-width="1276"
     inkscape:window-height="755"
     inkscape:window-x="6"
     inkscape:window-y="0"
     inkscape:window-maximized="0" />
  <metadata
     id="metadata5562">
    <rdf:RDF>
      <cc:Work
         rdf:about="">
        <dc:format>image/svg+xml</dc:format>
        <dc:type
           rdf:resource="http://purl.org/dc/dcmitype/StillImage" />
        <dc:title></dc:title>
      </cc:Work>
    </rdf:RDF>
  </metadata>
  <g
     inkscape:label="Layer 1"
     inkscape:groupmode="layer"
     id="layer1">
    <path
       style="color:#000000;clip-rule:nonzero;display:inline;overflow:visible;visibility:visible;opacity:1;isolation:auto;mix-blend-mode:normal;color-interpolation:sRGB;color-interpolation-filters:linearRGB;solid-color:#000000;solid-opacity:1;fill:#000000;fill-opacity:1;fill-rule:nonzero;stroke:#000000;stroke-width:1;stroke-linecap:butt;stroke-linejoin:miter;stroke-miterlimit:4;stroke-dasharray:none;stroke-dashoffset:0;stroke-opacity:1;color-rendering:auto;image-rendering:auto;shape-rendering:auto;text-rendering:auto;enable-background:accumulate"
       d="m 95.400391,175.33398 c -14.698863,-0.10654 -26.748472,10.00934 -26.994141,22.66211 -0.103852,5.474 2.059102,10.80107 6.101562,15.02735 l 48.191408,57.81054 c -3.68232,-1.62493 -7.69994,-2.42432 -11.75,-2.33789 -14.689445,0.35537 -26.334191,12.04023 -26.087892,26.17774 0.245924,14.1375 12.29082,25.44049 26.984372,25.32226 2.44511,-0.024 4.87527,-0.37032 7.22266,-1.02929 l -44.591798,48.75 c -4.039222,3.85201 -6.199965,8.70589 -6.095703,13.69336 0.246056,11.53383 12.298079,20.75505 27,20.6582 8.645591,-0.0609 16.721801,-3.39307 21.685551,-8.94727 l 0.0137,0.008 67.44922,-77.16797 35.34179,0 -47.34179,51.75586 c -4.03852,3.85223 -6.19856,8.70609 -6.09375,13.69336 0.24605,11.53322 12.29688,20.7542 26.99804,20.6582 8.64604,-0.0613 16.72234,-3.39428 21.68555,-8.94922 l 0.0156,0.01 67.44726,-77.16797 154.99609,0 -17.92382,35.10351 0.0527,0.0508 c -2.37222,4.02724 -3.58842,8.60927 -3.51953,13.25977 0.24172,14.13927 12.06048,25.44368 26.47852,25.32617 5.75303,-0.0515 11.32968,-1.9543 15.87304,-5.41601 l 98.81641,-67.35547 c 8.29711,-4.58685 13.41815,-13.08717 13.43164,-22.29492 -14.74765,0.23629 -11.21652,-0.59305 -0.0158,-0.86133 -0.2813,-7.77529 -4.2002,-15.01152 -10.6621,-19.6875 l 0,-0.0664 -98.91211,-86.53711 -0.0312,0.0254 c -4.87518,-3.94814 -11.03886,-6.03899 -17.35938,-5.88867 -14.41425,0.35574 -25.84081,12.04209 -25.59961,26.18164 0.0865,4.40681 1.32459,8.71812 3.5957,12.52149 l -0.0645,0.0527 25.01563,52.15039 -261.14258,-1.37109 -68.51563,-86.01368 -0.0156,0.01 c -4.96205,-6.09323 -13.0361,-9.7491 -21.679689,-9.81641 z m 98.029299,0 c -14.69811,-0.10562 -26.74653,10.01 -26.99219,22.66211 -0.10389,5.4696 2.0554,10.7927 6.0918,15.01758 l 49.22265,59.04492 61.89063,-0.90429 -68.51758,-86.01368 -0.0137,0.01 c -4.96245,-6.09371 -13.03736,-9.74964 -21.68164,-9.81641 z"
       id="path6113"
       inkscape:connector-curvature="0"
       sodipodi:nodetypes="ccccccccccccccccccccccccccccccccccccccccccccccccccccc" />
  </g>
</svg>
